<svg id="e4232b92-9cd5-4ddc-8d7a-3659c95d8a38" data-name="Laag 1" xmlns="http://www.w3.org/2000/svg" viewBox="0 0 176.43 89.53"><defs><style>.af57bf3d-8042-44bf-b7b0-d7e85375edb5{fill:#00afef;}</style></defs><path class="af57bf3d-8042-44bf-b7b0-d7e85375edb5" d="M159.47,31.76c-2.12-1.16-2.16-2.77-2.05-3.37s.53-.34.79-.34c1.39,0,2.85-.41,4.66-2.25a7.07,7.07,0,0,0-.45-9.71c-3.38-3.25-7-2.68-9.27.24a3.59,3.59,0,0,1-2.64,1c-1.48-.06-.55,1.11-.55,1.35s-.22.42-.35.38c-.51-.14-.3.6-.3.83a.35.35,0,0,1-.32.34c-.63,0-.46.56-.44.71a.55.55,0,0,1-.24.53,1.35,1.35,0,0,0-.43,1c0,.67.62,1.15,1.65,1.92a2.46,2.46,0,0,1,1.19,2,6.11,6.11,0,0,0,.3,1.94,1.32,1.32,0,0,1-1.19,2,20.35,20.35,0,0,0-5.11,1.56,6,6,0,0,1-3.31.22,13.43,13.43,0,0,1-1.56-1.26,2.41,2.41,0,0,1,.51-2,2.67,2.67,0,0,0,1.93.57,23.49,23.49,0,0,0,3.22-.47.84.84,0,0,1,.7,0,1.81,1.81,0,0,0,2.66-1.32c.51-1.75-.69-1.26-.84-1.18s-.36.05-.28-.1c.22-.44-.12-.39-.3-.41a2.22,2.22,0,0,0-1.34.66.46.46,0,0,1-.49.13c-.65-.32-2.58.14-3.18-.91a34.9,34.9,0,0,0-.77-5.27.71.71,0,0,1,.07-.69c.49-.73,1.85.06,2.58,0a1.3,1.3,0,0,0,1.26-.69c.23-.29.41-.12.53-.2s0-.31.06-.43.13-.05.28-.19,0-.41.05-.52c.22-.33.81-.07.46-.92a1.36,1.36,0,0,1,.34-1.32c.42-.55,2.07-2.87-.83-5.27s-5.57-2.11-7.38-.15-.9,4.82-.71,5.57a1.6,1.6,0,0,1-1,1.73,13.22,13.22,0,0,0-2.47,1.73A15.2,15.2,0,0,1,144.5,5.41a8.07,8.07,0,0,0,.8.86c-.63.47-2,1.71-2,1.71l.37.07.38.11s1.22-1,1.8-1.46a7.29,7.29,0,0,0,1.45.86c-.28.47-1,1.78-1,1.78l.3.18a1.72,1.72,0,0,1,.24.19s.76-1.44,1-1.91a7.86,7.86,0,0,0,2,.37v2.62c-.38,0-1.34,0-1.73-.09l-.25,0,.14.21a4,4,0,0,1,.25.44l0,.06h.07l1.49.06v4.78h.66v-1.1c1,0,1.78-.11,2.76-.19h0l.86-.77-.47,0c-1,.14-1.94.2-2.76.25l-.43,0v-3a15.44,15.44,0,0,0,3.57-.5c.33.79.93,2.7.93,2.7l.62-.19s-.6-1.9-.92-2.69a15.76,15.76,0,0,0,2.87-1.22,15.72,15.72,0,0,1,1.88,2.93c-.47.22-1.33.52-1.33.52a7.5,7.5,0,0,1,1.21.24l.4-.17.18.41.86.38-.1-.24-.35-.83A22.92,22.92,0,0,0,163,11.24a15.3,15.3,0,0,1-3.55,20.52ZM148.54,4.41a16.79,16.79,0,0,0-2.69,1.48,7.89,7.89,0,0,1-.7-.72,14.48,14.48,0,0,1,3.39-.76ZM147.63,7a7.05,7.05,0,0,1-1.23-.69,15.69,15.69,0,0,1,2.75-1.45A21.74,21.74,0,0,0,147.63,7Zm2.25-2V7.51a7,7,0,0,1-1.63-.29A24.39,24.39,0,0,1,149.88,5Zm.66,3.18a7.59,7.59,0,0,0,2-.37,23.2,23.2,0,0,1,1.3,2.53,14.75,14.75,0,0,1-3.31.46V8.17Zm0-3.21a24.67,24.67,0,0,1,1.65,2.26,6.65,6.65,0,0,1-1.65.29V5Zm3.51,1.35a7.44,7.44,0,0,1-1.23.69,22.31,22.31,0,0,0-1.54-2.15,16.63,16.63,0,0,1,2.77,1.46Zm1.24-1.14a6,6,0,0,1-.7.72,17.05,17.05,0,0,0-2.68-1.48,15.35,15.35,0,0,1,3.38.76ZM157.18,9a14.69,14.69,0,0,1-2.69,1.12,23.43,23.43,0,0,0-1.33-2.59,8.55,8.55,0,0,0,1.46-.85A16.57,16.57,0,0,1,157.18,9Zm-1.24-3.61a15,15,0,0,1,3.57,2.05,14.56,14.56,0,0,1-1.76,1.23,16.72,16.72,0,0,0-2.62-2.42,9.37,9.37,0,0,0,.81-.86Zm6.71,5.28a22.61,22.61,0,0,1-2.57,1.49,16,16,0,0,0-1.9-3A15.21,15.21,0,0,0,160,7.88a15.55,15.55,0,0,1,2.62,2.82Zm-12.44-7A15.94,15.94,0,1,0,166.15,19.6,15.95,15.95,0,0,0,150.21,3.66"/><path class="af57bf3d-8042-44bf-b7b0-d7e85375edb5" d="M132.83,7.89l-.25.22c-.93.83-3.07,3-2.74,5.41l0,.17.1.48.3-.28A9.83,9.83,0,0,0,133,8.33l.11-.66-.25.22"/><path class="af57bf3d-8042-44bf-b7b0-d7e85375edb5" d="M128.49,12l-.1.28a10.64,10.64,0,0,0-.56,2.37A7.21,7.21,0,0,0,129,20.17l.16.2.15.2.21-1a19.83,19.83,0,0,0-.73-7.24l-.23-.57-.11.29"/><path class="af57bf3d-8042-44bf-b7b0-d7e85375edb5" d="M126.91,18.51l0,.29c-.12,1.61,0,5.59,3.19,7.7l.38.25,0-.46a20,20,0,0,0-3.14-7.62l-.37-.46,0,.3"/><path class="af57bf3d-8042-44bf-b7b0-d7e85375edb5" d="M127.46,25.62l.06.27c.47,2.29,2.64,6,6,7.06l.46.15-.17-.45a20.61,20.61,0,0,0-5.92-7l-.46-.3,0,.27"/><path class="af57bf3d-8042-44bf-b7b0-d7e85375edb5" d="M134.19,11.34l-.27.15c-2.49,1.52-3.66,3.36-3.57,5.64l0,.52.36-.31a14.85,14.85,0,0,0,3.53-5.58l.18-.59-.26.17"/><path class="af57bf3d-8042-44bf-b7b0-d7e85375edb5" d="M132.72,16.31l-.19.18c-.64.61-2.7,2.8-2.52,5.52a5.37,5.37,0,0,0,.28,1.33l.15.43.27-.37a15.59,15.59,0,0,0,2.22-6.75l0-.52-.19.18"/><path class="af57bf3d-8042-44bf-b7b0-d7e85375edb5" d="M132.82,21l-.13.21a8.08,8.08,0,0,0-1.54,4.59,5.72,5.72,0,0,0,1,3.08l.22.32.18-.34a16.53,16.53,0,0,0,.76-5.76,7.52,7.52,0,0,0-.23-1.83l-.13-.48-.15.21"/><path class="af57bf3d-8042-44bf-b7b0-d7e85375edb5" d="M134,26.06l-.06.22a8.92,8.92,0,0,0-.44,2.91,5.73,5.73,0,0,0,2.78,4.9l.3.19.07-.41,0-.32c0-1.71-1.32-6-2.32-7.34l-.28-.37-.07.22"/><path class="af57bf3d-8042-44bf-b7b0-d7e85375edb5" d="M130.84,32.71Zm-.32,0,.13.22c1.34,2.25,3.62,5.15,7.87,4.4l.36-.06-.2-.3c-.79-1.18-6-4.1-7.79-4.39l-.5-.08.13.21"/><path class="af57bf3d-8042-44bf-b7b0-d7e85375edb5" d="M136.82,38.45l-.67.18.64.26c2.71,1.11,6.1,1.44,8.07.78a4.36,4.36,0,0,0,1.73-1.2c3.47.36,6.71,3.24,8.6,5.59l.1.12.15,0a2.18,2.18,0,0,0,.68-.47l.13-.14-.12-.16a16.77,16.77,0,0,0-5.2-4.24c-2.77-1.36-7.68-2.41-14.11-.67"/><path class="af57bf3d-8042-44bf-b7b0-d7e85375edb5" d="M137,31.25l0,.23c.4,2.55,1.44,5.9,5.75,5.53l.27,0-.06-.26c-.3-1.16-4.24-4.53-5.62-5.48l-.41-.21,0,.22"/><path class="af57bf3d-8042-44bf-b7b0-d7e85375edb5" d="M167.41,7.67l.11.66a9.86,9.86,0,0,0,2.69,5.56l.3.27.11-.47,0-.17c.32-2.39-1.81-4.58-2.74-5.41l-.25-.22-.25-.22"/><path class="af57bf3d-8042-44bf-b7b0-d7e85375edb5" d="M171.89,11.75l-.23.57a19.83,19.83,0,0,0-.73,7.24l.21,1,.15-.2.16-.2a7.17,7.17,0,0,0,1.21-5.49,10.66,10.66,0,0,0-.56-2.36L172,12l-.11-.28"/><path class="af57bf3d-8042-44bf-b7b0-d7e85375edb5" d="M173.56,18.22l-.38.45a20.12,20.12,0,0,0-3.13,7.62l0,.46.38-.25c3.22-2.11,3.3-6.08,3.19-7.7l0-.29,0-.29"/><path class="af57bf3d-8042-44bf-b7b0-d7e85375edb5" d="M173.08,25.35l-.46.3a20.61,20.61,0,0,0-5.92,7l-.17.45L167,33c3.34-1.08,5.51-4.77,6-7.06l.06-.27.05-.27"/><path class="af57bf3d-8042-44bf-b7b0-d7e85375edb5" d="M166.17,11.1l.17.59a14.76,14.76,0,0,0,3.42,5.65l.35.31,0-.52c.14-2.27-1-4.13-3.45-5.7l-.26-.17-.26-.16"/><path class="af57bf3d-8042-44bf-b7b0-d7e85375edb5" d="M167.58,16.13l0,.52a15.47,15.47,0,0,0,2.23,6.75l.26.37.15-.43a5.37,5.37,0,0,0,.28-1.33c.18-2.72-1.89-4.91-2.52-5.52l-.19-.18-.19-.18"/><path class="af57bf3d-8042-44bf-b7b0-d7e85375edb5" d="M167.52,20.81l-.13.48a7.52,7.52,0,0,0-.23,1.83,16.53,16.53,0,0,0,.76,5.76l.18.34.22-.32a5.72,5.72,0,0,0,1-3.08,8,8,0,0,0-1.54-4.59l-.14-.21-.14-.21"/><path class="af57bf3d-8042-44bf-b7b0-d7e85375edb5" d="M166.39,25.84l-.28.37c-1,1.31-2.27,5.63-2.32,7.34l0,.32.07.41.3-.19a5.73,5.73,0,0,0,2.78-4.9,9.19,9.19,0,0,0-.44-2.91l-.07-.22-.06-.22"/><path class="af57bf3d-8042-44bf-b7b0-d7e85375edb5" d="M169.66,32.71Zm.43-.18-.49.08c-1.83.29-7,3.21-7.79,4.39l-.2.3.36.06c4.25.75,6.52-2.15,7.87-4.4l.13-.22.12-.21"/><path class="af57bf3d-8042-44bf-b7b0-d7e85375edb5" d="M149.56,39.12a16.89,16.89,0,0,0-5.2,4.24l-.12.16.14.14a2,2,0,0,0,.67.47l.14,0,.11-.11c1.89-2.35,5.13-5.23,8.59-5.59a4.44,4.44,0,0,0,1.74,1.19c2,.66,5.36.33,8.07-.77l.64-.27-.67-.18c-6.43-1.74-11.34-.69-14.11.67"/><path class="af57bf3d-8042-44bf-b7b0-d7e85375edb5" d="M163.56,31l-.41.21c-1.38.95-5.32,4.31-5.62,5.48l-.06.26.27,0c4.31.37,5.34-3,5.75-5.53l0-.23,0-.22"/><path class="af57bf3d-8042-44bf-b7b0-d7e85375edb5" d="M59.71,39.61H55.19V15.7h4.52Zm-5-34.38h5.38v4.9H54.76Z"/><path class="af57bf3d-8042-44bf-b7b0-d7e85375edb5" d="M21,15.73h4.52V39.64H21.12V36.11H21a9.07,9.07,0,0,1-8.19,4.24c-5,0-7.87-3.81-7.87-8.62v-16H9.5V29.87c0,4.15,1,7.19,5.29,7.19a5.67,5.67,0,0,0,5.33-3.42A17.69,17.69,0,0,0,21,28V15.73"/><path class="af57bf3d-8042-44bf-b7b0-d7e85375edb5" d="M34.59,19.25h.09A8.29,8.29,0,0,1,41.92,15c1.67,0,9,.42,9,8.09V39.64H46.44v-15c0-4-1.66-6.1-5.47-6.1a6.22,6.22,0,0,0-4.38,1.76c-.67.67-1.91,1.72-1.91,6.38v13H30.16V15.73h4.43v3.52"/><path class="af57bf3d-8042-44bf-b7b0-d7e85375edb5" d="M78.66,23.4c-.24-3-1.66-5.06-4.88-5.06-4.3,0-6,3.73-6,9.32s1.66,9.32,6,9.32c3,0,4.83-1.94,5.06-5.35h4.5C83,37,79,40.24,73.73,40.24c-7.61,0-10.64-5.39-10.64-12.39s3.5-12.78,11-12.78c5,0,8.8,3.17,9,8.33H78.66"/><path class="af57bf3d-8042-44bf-b7b0-d7e85375edb5" d="M102.12,25.38c.09-4-1.71-7-6.06-7-3.74,0-6,3.17-6,7.05Zm-12,3.12c-.33,4.17,1.37,8.48,6,8.48,3.5,0,5.25-1.37,5.76-4.83h4.75c-.72,5.4-4.89,8.09-10.56,8.09-7.62,0-10.65-5.39-10.65-12.39s3.51-12.78,11-12.78c7.1.15,10.46,4.63,10.46,11.22v2.22H90.1"/><path class="af57bf3d-8042-44bf-b7b0-d7e85375edb5" d="M111.93,39.53V18.9h-4.08V15.77h4.08v-5.1c.15-5.21,4.08-6.58,7.44-6.58a19,19,0,0,1,3.22.47V8.3c-.76,0-1.52-.15-2.28-.15-2.55,0-4,.67-3.88,3.27v4.35h5.49V18.9h-5.49V39.53h-4.5"/><rect class="af57bf3d-8042-44bf-b7b0-d7e85375edb5" x="3.7" y="54.15" width="165.32" height="1"/><path class="af57bf3d-8042-44bf-b7b0-d7e85375edb5" d="M4.58,71.31l4.68,11.8,4.52-11.8h1.78L10.18,85.45H8.34L2.8,71.31Z"/><path class="af57bf3d-8042-44bf-b7b0-d7e85375edb5" d="M28.7,78.38c0,3.72-2,7.49-6.33,7.49s-6.32-3.77-6.32-7.49,2-7.49,6.32-7.49S28.7,74.66,28.7,78.38Zm-6.33-5.94c-3.27,0-4.57,3.32-4.57,5.94s1.3,5.94,4.57,5.94,4.57-3.32,4.57-5.94S25.64,72.44,22.37,72.44Z"/><path class="af57bf3d-8042-44bf-b7b0-d7e85375edb5" d="M43.18,78.38c0,3.72-2,7.49-6.32,7.49s-6.33-3.77-6.33-7.49,2-7.49,6.33-7.49S43.18,74.66,43.18,78.38Zm-6.32-5.94c-3.27,0-4.57,3.32-4.57,5.94s1.3,5.94,4.57,5.94,4.57-3.32,4.57-5.94S40.13,72.44,36.86,72.44Z"/><path class="af57bf3d-8042-44bf-b7b0-d7e85375edb5" d="M47.61,85.45H46v-11c0-1.1-.08-2.22-.13-3.18h1.67l.08,2.08h.06a3.5,3.5,0,0,1,3-2.5,14.82,14.82,0,0,1,1.63,0v1.63c-.33,0-.68-.11-1-.11-2.41,0-3.68,1.8-3.74,4.5Z"/><path class="af57bf3d-8042-44bf-b7b0-d7e85375edb5" d="M63.21,67.23H61.32V65.12h1.89Zm-.13,4.08V85.45H61.45V71.31Z"/><path class="af57bf3d-8042-44bf-b7b0-d7e85375edb5" d="M67.83,78.77c.06,3,1.38,5.55,4.71,5.55a4.1,4.1,0,0,0,3.92-3.38h1.7c-.84,3.38-2.87,4.93-6.14,4.93-4,0-5.94-3.63-5.94-7.49s2-7.49,6-7.49c4.54,0,6.19,3.46,6.19,7.88Zm8.73-1.55c-.19-2.73-1.59-4.78-4.4-4.78-2.65,0-4.06,2.31-4.27,4.78Z"/><path class="af57bf3d-8042-44bf-b7b0-d7e85375edb5" d="M90.73,83.36l-.06-.11A5.45,5.45,0,0,1,86,85.87c-4,0-5.56-4-5.56-7.55S82,70.89,86,70.89a5.36,5.36,0,0,1,4.65,2.56l.06,0V65.12h1.62V82.26c0,1.1.08,2.23.13,3.19H90.81ZM86.29,72.44c-3.08,0-4.08,3-4.08,5.69s.73,6.19,3.84,6.19c3.54,0,4.62-3.07,4.62-6.28C90.67,75.17,89.46,72.44,86.29,72.44Z"/><path class="af57bf3d-8042-44bf-b7b0-d7e85375edb5" d="M96.81,78.77c0,3,1.38,5.55,4.7,5.55a4.1,4.1,0,0,0,3.92-3.38h1.7c-.84,3.38-2.86,4.93-6.13,4.93-4.06,0-6-3.63-6-7.49s2-7.49,6.06-7.49c4.54,0,6.19,3.46,6.19,7.88Zm8.73-1.55c-.19-2.73-1.6-4.78-4.41-4.78-2.65,0-4,2.31-4.27,4.78Z"/><path class="af57bf3d-8042-44bf-b7b0-d7e85375edb5" d="M112,85.45h-1.62v-11c0-1.1-.08-2.22-.14-3.18h1.68l.08,2.08h0a3.53,3.53,0,0,1,3.06-2.5,14.6,14.6,0,0,1,1.62,0v1.63c-.32,0-.67-.11-1-.11-2.4,0-3.67,1.8-3.73,4.5Z"/><path class="af57bf3d-8042-44bf-b7b0-d7e85375edb5" d="M127.57,77.08l6.56-5.77h2.08l-6.86,6.11,7.4,8H134.7l-7.14-7.66v7.66h-1.62V65.12h1.62v12Z"/><path class="af57bf3d-8042-44bf-b7b0-d7e85375edb5" d="M140.54,67.23h-1.89V65.12h1.89Zm-.14,4.08V85.45h-1.62V71.31Z"/><path class="af57bf3d-8042-44bf-b7b0-d7e85375edb5" d="M145.84,85.45h-1.63v-11c0-1.1-.08-2.22-.13-3.18h1.68l.08,2.08,0,.06a4.63,4.63,0,0,1,4.24-2.56c4.44,0,4.79,4.08,4.79,5.71v8.85H153.3V76.32c0-2.45-1.35-3.88-3.57-3.88-2.68,0-3.89,2.33-3.89,4.87v8.14Z"/><path class="af57bf3d-8042-44bf-b7b0-d7e85375edb5" d="M168.05,83.36l-.05-.11a5.46,5.46,0,0,1-4.65,2.62c-4,0-5.57-4-5.57-7.55s1.54-7.43,5.57-7.43A5.38,5.38,0,0,1,168,73.45l.05,0V65.12h1.63V82.26c0,1.1.08,2.23.13,3.19h-1.67Zm-4.43-10.92c-3.08,0-4.08,3-4.08,5.69s.73,6.19,3.84,6.19c3.54,0,4.62-3.07,4.62-6.28C168,75.17,166.78,72.44,163.62,72.44Z"/></svg>