<svg id="f6f3ee82-4951-4596-a88b-d64b317e97ed" data-name="Laag 1" xmlns="http://www.w3.org/2000/svg" viewBox="0 0 177.15 89.53"><defs><style>.ff084789-048d-486a-8fdd-6fa8fee5f7cd{fill:#00afef;}</style></defs><path class="ff084789-048d-486a-8fdd-6fa8fee5f7cd" d="M159.62,32.17c-2.12-1.16-2.16-2.78-2.05-3.37s.53-.34.79-.34A6.14,6.14,0,0,0,163,26.21a7.07,7.07,0,0,0-.45-9.71c-3.37-3.25-7-2.68-9.27.24a3.58,3.58,0,0,1-2.63,1c-1.48-.06-.55,1.11-.55,1.35s-.23.42-.36.38c-.5-.14-.3.6-.3.83a.35.35,0,0,1-.32.34c-.62,0-.45.56-.43.71a.58.58,0,0,1-.25.53,1.39,1.39,0,0,0-.43,1c0,.67.62,1.14,1.66,1.92a2.47,2.47,0,0,1,1.18,2,6.41,6.41,0,0,0,.3,1.94,1.31,1.31,0,0,1-1.18,2,20.32,20.32,0,0,0-5.12,1.56,6.11,6.11,0,0,1-3.31.22A15.63,15.63,0,0,1,140,31.24a2.45,2.45,0,0,1,.51-2,2.68,2.68,0,0,0,1.93.57,23.49,23.49,0,0,0,3.22-.47.84.84,0,0,1,.7,0A1.81,1.81,0,0,0,149,28.05c.51-1.75-.7-1.26-.85-1.18s-.36.05-.28-.1c.22-.44-.11-.39-.3-.41a2.25,2.25,0,0,0-1.34.66.47.47,0,0,1-.48.13c-.66-.33-2.59.14-3.18-.91a36.38,36.38,0,0,0-.78-5.27.72.72,0,0,1,.08-.69c.49-.73,1.84.06,2.58,0a1.31,1.31,0,0,0,1.26-.69c.23-.29.4-.12.52-.2s0-.31.07-.43.12-.06.27-.19,0-.41.06-.52c.21-.33.8-.07.45-.92a1.39,1.39,0,0,1,.34-1.32c.43-.55,2.07-2.87-.83-5.27s-5.57-2.11-7.37-.15-.91,4.81-.72,5.57a1.58,1.58,0,0,1-1,1.73,13.56,13.56,0,0,0-2.47,1.73,15.19,15.19,0,0,1,9.57-13.84,9.37,9.37,0,0,0,.81.86c-.63.47-2,1.71-2,1.71l.36.07.38.11s1.23-1,1.8-1.46a6.87,6.87,0,0,0,1.46.85c-.28.47-1,1.78-1,1.78l.31.19a2,2,0,0,1,.23.19s.76-1.44,1.05-1.92a7.07,7.07,0,0,0,2,.37V11.2c-.38,0-1.34,0-1.73-.09l-.24,0,.13.21a3,3,0,0,1,.26.44l0,0h.06l1.49.06v4.78h.66v-1.1c1,0,1.79-.11,2.76-.19h0l.86-.76-.47,0c-1,.14-1.93.2-2.76.24l-.43,0v-3a16.17,16.17,0,0,0,3.58-.5c.32.79.92,2.7.92,2.7l.63-.2s-.6-1.89-.92-2.69A15,15,0,0,0,157.76,10a16.3,16.3,0,0,1,1.89,2.93c-.47.22-1.33.52-1.33.52a7.81,7.81,0,0,1,1.21.24l.4-.17c0,.13.18.41.18.41l.85.38-.1-.24-.35-.84a21.48,21.48,0,0,0,2.66-1.53,15.3,15.3,0,0,1-3.55,20.52ZM148.7,4.82A17.1,17.1,0,0,0,146,6.29a6.8,6.8,0,0,1-.71-.71,14.68,14.68,0,0,1,3.4-.76Zm-.92,2.58a6.34,6.34,0,0,1-1.22-.68,15.34,15.34,0,0,1,2.75-1.45,23,23,0,0,0-1.53,2.13Zm2.25-2V7.92a6.89,6.89,0,0,1-1.62-.29A24.27,24.27,0,0,1,150,5.4Zm.67,3.18a7.59,7.59,0,0,0,2-.37A23.27,23.27,0,0,1,154,10.74a14.83,14.83,0,0,1-3.31.46V8.58Zm0-3.21a25.1,25.1,0,0,1,1.64,2.26,7.06,7.06,0,0,1-1.64.29V5.37Zm3.5,1.35A6.73,6.73,0,0,1,153,7.4a23.37,23.37,0,0,0-1.53-2.14,16.93,16.93,0,0,1,2.76,1.46Zm1.25-1.14a6.9,6.9,0,0,1-.71.72,17,17,0,0,0-2.67-1.48,15.48,15.48,0,0,1,3.38.76Zm1.88,3.86a14.9,14.9,0,0,1-2.68,1.12A26.53,26.53,0,0,0,153.32,8a7.06,7.06,0,0,0,1.45-.85,16.63,16.63,0,0,1,2.56,2.33Zm-1.24-3.61a15.13,15.13,0,0,1,3.58,2,14.63,14.63,0,0,1-1.76,1.24,16.72,16.72,0,0,0-2.62-2.42,8.07,8.07,0,0,0,.8-.86Zm6.71,5.28a22.61,22.61,0,0,1-2.57,1.49,16,16,0,0,0-1.9-3,14.58,14.58,0,0,0,1.86-1.33,15.5,15.5,0,0,1,2.61,2.82Zm-12.43-7A15.94,15.94,0,1,0,166.3,20,16,16,0,0,0,150.37,4.07"/><path class="ff084789-048d-486a-8fdd-6fa8fee5f7cd" d="M133,8.3l-.25.22c-.94.83-3.07,3-2.74,5.41l0,.17.1.48.3-.28a9.83,9.83,0,0,0,2.69-5.56l.12-.66L133,8.3"/><path class="ff084789-048d-486a-8fdd-6fa8fee5f7cd" d="M128.65,12.44l-.11.29a12,12,0,0,0-.56,2.36,7.19,7.19,0,0,0,1.22,5.49l.15.2.16.2.2-1a19.83,19.83,0,0,0-.73-7.24l-.22-.57-.11.28"/><path class="ff084789-048d-486a-8fdd-6fa8fee5f7cd" d="M127.07,18.92l0,.29c-.12,1.61,0,5.59,3.18,7.7l.38.24V26.7a20.25,20.25,0,0,0-3.14-7.62l-.38-.46v.3"/><path class="ff084789-048d-486a-8fdd-6fa8fee5f7cd" d="M127.62,26l.06.27c.46,2.29,2.63,6,6,7.06l.45.15-.16-.46a21,21,0,0,0-5.92-7l-.47-.29.06.27"/><path class="ff084789-048d-486a-8fdd-6fa8fee5f7cd" d="M134.34,11.74l-.27.16c-2.48,1.52-3.65,3.36-3.56,5.64l0,.52.36-.31a14.85,14.85,0,0,0,3.53-5.58l.18-.59-.26.16"/><path class="ff084789-048d-486a-8fdd-6fa8fee5f7cd" d="M132.87,16.72l-.19.18c-.63.6-2.7,2.8-2.52,5.52a5.42,5.42,0,0,0,.29,1.33l.14.43.27-.37a15.45,15.45,0,0,0,2.22-6.75l0-.52-.19.18"/><path class="ff084789-048d-486a-8fdd-6fa8fee5f7cd" d="M133,21.43l-.14.21a8.05,8.05,0,0,0-1.54,4.59,5.73,5.73,0,0,0,1,3.08l.22.32.18-.35a16.24,16.24,0,0,0,.75-5.75,7.52,7.52,0,0,0-.22-1.83l-.14-.48-.14.21"/><path class="ff084789-048d-486a-8fdd-6fa8fee5f7cd" d="M134.19,26.47l-.07.22a8.9,8.9,0,0,0-.43,2.91,5.73,5.73,0,0,0,2.77,4.9l.3.19.07-.41,0-.32a19.26,19.26,0,0,0-2.32-7.34l-.27-.37-.07.22"/><path class="ff084789-048d-486a-8fdd-6fa8fee5f7cd" d="M131,33.12Zm-.31,0,.13.22c1.34,2.25,3.62,5.15,7.87,4.4l.36-.06-.21-.3c-.79-1.18-6-4.1-7.78-4.39l-.5-.08.13.21"/><path class="ff084789-048d-486a-8fdd-6fa8fee5f7cd" d="M137,38.86l-.66.18.64.26c2.71,1.11,6.1,1.44,8.06.77a4.34,4.34,0,0,0,1.74-1.19c3.46.36,6.71,3.24,8.6,5.59l.1.12.14-.05a2.07,2.07,0,0,0,.68-.47l.14-.15-.12-.15a17,17,0,0,0-5.2-4.24c-2.78-1.36-7.68-2.41-14.12-.67"/><path class="ff084789-048d-486a-8fdd-6fa8fee5f7cd" d="M137.12,31.66l0,.23c.41,2.55,1.44,5.9,5.75,5.53l.28,0-.07-.26c-.29-1.17-4.24-4.53-5.62-5.48l-.41-.21,0,.22"/><path class="ff084789-048d-486a-8fdd-6fa8fee5f7cd" d="M167.56,8.08l.11.66a9.86,9.86,0,0,0,2.69,5.56l.3.27.11-.47,0-.17c.33-2.4-1.81-4.58-2.74-5.41l-.25-.22-.25-.22"/><path class="ff084789-048d-486a-8fdd-6fa8fee5f7cd" d="M172,12.16l-.22.57a19.83,19.83,0,0,0-.73,7.24l.2,1,.16-.2.15-.2a7.23,7.23,0,0,0,1.22-5.49,12,12,0,0,0-.56-2.36l-.11-.29-.11-.28"/><path class="ff084789-048d-486a-8fdd-6fa8fee5f7cd" d="M173.71,18.62l-.37.46a20.32,20.32,0,0,0-3.14,7.62l0,.46.39-.25c3.21-2.11,3.3-6.08,3.18-7.7l0-.29,0-.3"/><path class="ff084789-048d-486a-8fdd-6fa8fee5f7cd" d="M173.24,25.76l-.47.29a20.91,20.91,0,0,0-5.92,7l-.17.46.46-.15c3.35-1.08,5.52-4.78,6-7.06l.06-.27.06-.27"/><path class="ff084789-048d-486a-8fdd-6fa8fee5f7cd" d="M166.32,11.51l.17.59a15,15,0,0,0,3.42,5.65l.36.31,0-.52c.13-2.27-1-4.13-3.45-5.7l-.27-.17-.26-.16"/><path class="ff084789-048d-486a-8fdd-6fa8fee5f7cd" d="M167.74,16.54l0,.52a15.6,15.6,0,0,0,2.23,6.75l.27.37.14-.43a5,5,0,0,0,.28-1.33c.18-2.72-1.88-4.91-2.52-5.52l-.18-.18-.19-.18"/><path class="ff084789-048d-486a-8fdd-6fa8fee5f7cd" d="M167.68,21.22l-.14.48a7.12,7.12,0,0,0-.22,1.83,16.34,16.34,0,0,0,.75,5.76l.18.34.22-.32a5.72,5.72,0,0,0,1-3.08A8,8,0,0,0,168,21.64l-.14-.21-.14-.21"/><path class="ff084789-048d-486a-8fdd-6fa8fee5f7cd" d="M166.54,26.25l-.28.37A19.61,19.61,0,0,0,163.94,34l0,.32.06.41.3-.19a5.71,5.71,0,0,0,2.78-4.9,9.17,9.17,0,0,0-.43-2.91l-.07-.22-.07-.22"/><path class="ff084789-048d-486a-8fdd-6fa8fee5f7cd" d="M169.81,33.12Zm.44-.19-.5.09c-1.82.29-7,3.21-7.79,4.39l-.2.3.36.06c4.25.75,6.53-2.15,7.87-4.4l.13-.22.13-.22"/><path class="ff084789-048d-486a-8fdd-6fa8fee5f7cd" d="M149.71,39.53a17,17,0,0,0-5.2,4.24l-.12.16.14.14a2,2,0,0,0,.67.47l.15.05.1-.11c1.89-2.36,5.13-5.24,8.6-5.59a4.41,4.41,0,0,0,1.73,1.19c2,.66,5.36.33,8.07-.77l.64-.27-.67-.18c-6.43-1.74-11.33-.69-14.11.67"/><path class="ff084789-048d-486a-8fdd-6fa8fee5f7cd" d="M163.72,31.43l-.42.22c-1.37,1-5.32,4.31-5.61,5.48l-.07.26.28,0c4.3.37,5.34-3,5.74-5.53l0-.23,0-.23"/><path class="ff084789-048d-486a-8fdd-6fa8fee5f7cd" d="M59.86,40H55.34V16.11h4.52Zm-5-34.38h5.38v4.9H54.91Z"/><path class="ff084789-048d-486a-8fdd-6fa8fee5f7cd" d="M21.18,16.14H25.7V40.05H21.28V36.52h-.1c-1.81,3-4.86,4.24-8.19,4.24-5,0-7.86-3.81-7.86-8.62v-16H9.66V30.28c0,4.15.95,7.19,5.28,7.19A5.68,5.68,0,0,0,20.28,34a17.82,17.82,0,0,0,.9-5.62V16.14"/><path class="ff084789-048d-486a-8fdd-6fa8fee5f7cd" d="M34.74,19.66h.1a8.28,8.28,0,0,1,7.23-4.24c1.67,0,9,.43,9,8.1V40.05H46.6V25c0-4-1.67-6.1-5.48-6.1a6.22,6.22,0,0,0-4.38,1.76c-.66.67-1.9,1.72-1.9,6.38v13H30.31V16.14h4.43v3.52"/><path class="ff084789-048d-486a-8fdd-6fa8fee5f7cd" d="M78.81,23.8c-.24-3-1.65-5.05-4.87-5.05-4.3,0-6,3.73-6,9.32s1.66,9.32,6,9.32c3,0,4.82-1.94,5-5.35H83.5c-.39,5.35-4.35,8.61-9.61,8.61-7.62,0-10.65-5.39-10.65-12.39s3.5-12.78,11-12.78c5,0,8.8,3.17,9,8.33H78.81"/><path class="ff084789-048d-486a-8fdd-6fa8fee5f7cd" d="M102.27,25.79c.1-4-1.7-7-6.06-7-3.74,0-6,3.16-6,7.05Zm-12,3.12c-.33,4.17,1.38,8.48,6,8.48,3.5,0,5.26-1.37,5.77-4.83h4.74c-.71,5.4-4.88,8.09-10.55,8.09-7.62,0-10.66-5.39-10.66-12.39s3.51-12.79,11-12.79c7.09.15,10.45,4.64,10.45,11.23v2.22H90.25"/><path class="ff084789-048d-486a-8fdd-6fa8fee5f7cd" d="M112.09,39.94V19.31H108V16.18h4.09V11.07c.15-5.2,4.07-6.57,7.43-6.57a18.81,18.81,0,0,1,3.22.47V8.71c-.76-.05-1.51-.15-2.27-.15-2.55,0-4,.67-3.88,3.27v4.35h5.49v3.13h-5.49V39.94h-4.5"/><rect class="ff084789-048d-486a-8fdd-6fa8fee5f7cd" x="3.85" y="54.56" width="165.32" height="1"/><path class="ff084789-048d-486a-8fdd-6fa8fee5f7cd" d="M4.7,85.46H3.47V73c0-.83-.06-1.69-.1-2.41H4.64L4.7,72.2l0,0A4.08,4.08,0,0,1,8.27,70.3c3.06,0,4.23,2.86,4.23,5.64s-1.17,5.73-4.17,5.73a4.16,4.16,0,0,1-3.59-2h0Zm3.51-5c2.36,0,3-2.72,3-4.71s-.8-4.32-3.14-4.32S4.7,73.55,4.7,75.73C4.7,78.17,5.52,80.5,8.21,80.5Z"/><path class="ff084789-048d-486a-8fdd-6fa8fee5f7cd" d="M23.55,76c0,2.82-1.52,5.68-4.81,5.68s-4.8-2.86-4.8-5.68,1.52-5.69,4.8-5.69S23.55,73.16,23.55,76Zm-4.81-4.52c-2.48,0-3.47,2.53-3.47,4.52s1,4.51,3.47,4.51S22.21,78,22.21,76,21.23,71.47,18.74,71.47Z"/><path class="ff084789-048d-486a-8fdd-6fa8fee5f7cd" d="M32.58,70.62h1.23v8.32c0,.83.06,1.69.1,2.41H32.64l-.06-1.58,0,0a3.53,3.53,0,0,1-3.22,1.94c-3.37,0-3.64-3.1-3.64-4.34V70.62h1.23v6.92c0,1.87,1,3,2.71,3,2,0,3-1.78,3-3.7V70.62Z"/><path class="ff084789-048d-486a-8fdd-6fa8fee5f7cd" d="M37.92,81.35H36.68V73c0-.83-.06-1.69-.1-2.41h1.27l.07,1.58h0a2.66,2.66,0,0,1,2.32-1.9,10.1,10.1,0,0,1,1.23,0v1.24c-.25,0-.52-.09-.76-.09-1.83,0-2.79,1.37-2.83,3.42v6.46Z"/><path class="ff084789-048d-486a-8fdd-6fa8fee5f7cd" d="M54.92,73.91c-.11-1.65-1.11-2.44-2.82-2.44C50.21,71.47,49,73.53,49,76s1.17,4.54,3.06,4.54A2.66,2.66,0,0,0,54.92,78h1.33c-.33,2.46-1.68,3.67-4,3.67-3.08,0-4.52-2.75-4.52-5.68s1.54-5.69,4.6-5.69a3.7,3.7,0,0,1,3.94,3.61Z"/><path class="ff084789-048d-486a-8fdd-6fa8fee5f7cd" d="M58.47,72.24h0a3.53,3.53,0,0,1,3.22-1.94c3.37,0,3.63,3.1,3.63,4.34v6.71H64.13V74.42c0-1.86-1-3-2.71-3-2,0-3,1.78-3,3.7v6.18H57.23V65.91h1.24v6.33Z"/><path class="ff084789-048d-486a-8fdd-6fa8fee5f7cd" d="M74.07,73.78a2.13,2.13,0,0,0-2.44-2.31c-1.3,0-2.36.41-2.53,1.86H67.79c.31-2.2,1.89-3,3.86-3,2.28,0,3.69,1.09,3.65,3.55v5.09c0,.83.06,1.69.11,2.41H74.13l0-1.58h0l-.06.15a3.83,3.83,0,0,1-3.22,1.76,3.21,3.21,0,0,1-3.43-3.32,3.31,3.31,0,0,1,2.07-3.1c1.38-.62,3.16-.41,4.66-.49v-1ZM71,80.5c2.69,0,3.2-2.31,3.08-4.56-1.75.07-5.4-.28-5.4,2.42A2.09,2.09,0,0,0,71,80.5Z"/><path class="ff084789-048d-486a-8fdd-6fa8fee5f7cd" d="M85.26,70.62h1.27c0,.72-.1,1.58-.1,2.41V85.44H85.2V79.68h0a4.18,4.18,0,0,1-3.6,2c-3,0-4.17-3-4.17-5.73s1.17-5.65,4.23-5.65a4.12,4.12,0,0,1,3.53,1.91v.06h0V72.2Zm-3.39.85c-2.34,0-3.14,2.27-3.14,4.32s.59,4.71,3,4.71c2.68,0,3.51-2.33,3.51-4.77C85.2,73.55,84.27,71.47,81.87,71.47Z"/><path class="ff084789-048d-486a-8fdd-6fa8fee5f7cd" d="M96,70.62h1.24v8.32c0,.83.06,1.69.1,2.41H96.06L96,79.77l0,0a3.51,3.51,0,0,1-3.22,1.94c-3.37,0-3.63-3.1-3.63-4.34V70.62h1.23v6.92c0,1.87,1,3,2.71,3,2,0,3-1.78,3-3.7V70.62Z"/><path class="ff084789-048d-486a-8fdd-6fa8fee5f7cd" d="M100.82,76.28c0,2.29,1.05,4.22,3.57,4.22a3.11,3.11,0,0,0,3-2.57h1.29c-.64,2.57-2.18,3.74-4.66,3.74-3.08,0-4.52-2.76-4.52-5.69s1.54-5.68,4.6-5.68c3.45,0,4.7,2.63,4.7,6Zm6.63-1.17c-.14-2.08-1.21-3.64-3.35-3.64s-3.08,1.76-3.24,3.64Z"/><path class="ff084789-048d-486a-8fdd-6fa8fee5f7cd" d="M117.12,76.28c0,2.29,1,4.22,3.57,4.22a3.11,3.11,0,0,0,3-2.57H125c-.64,2.57-2.18,3.74-4.66,3.74-3.08,0-4.52-2.76-4.52-5.69s1.54-5.68,4.6-5.68c3.45,0,4.7,2.63,4.7,6Zm6.63-1.17c-.14-2.08-1.21-3.64-3.35-3.64s-3.08,1.76-3.24,3.64Z"/><path class="ff084789-048d-486a-8fdd-6fa8fee5f7cd" d="M128.64,81.35H127.4V73c0-.83-.06-1.69-.1-2.41h1.27l.06,1.58.05,0a3.51,3.51,0,0,1,3.22-1.94c3.37,0,3.63,3.1,3.63,4.34v6.71H134.3V74.42c0-1.86-1-3-2.71-3-2,0-3,1.78-3,3.7v6.18Z"/><path class="ff084789-048d-486a-8fdd-6fa8fee5f7cd" d="M139.29,81.35V71.79h-2.07V70.62h2.07V68.33c0-1.84.72-2.67,2.48-2.67a5.77,5.77,0,0,1,1.17.23v1a3.84,3.84,0,0,0-.75-.09c-1.69,0-1.73.88-1.67,2.42v1.37h2.34v1.17h-2.34v9.56Z"/><path class="ff084789-048d-486a-8fdd-6fa8fee5f7cd" d="M150.25,73.78c-.12-1.75-1-2.31-2.44-2.31-1.29,0-2.36.41-2.52,1.86H144c.31-2.2,1.89-3,3.86-3,2.28,0,3.7,1.09,3.66,3.55v5.09c0,.83.06,1.69.1,2.41h-1.27l0-1.58h-.05l-.06.15A3.82,3.82,0,0,1,147,81.68a3.21,3.21,0,0,1-3.43-3.32,3.3,3.3,0,0,1,2.08-3.1c1.37-.62,3.16-.41,4.66-.49v-1Zm-3.08,6.72c2.69,0,3.21-2.31,3.08-4.56-1.74.07-5.39-.28-5.39,2.42A2.08,2.08,0,0,0,147.17,80.5Z"/><path class="ff084789-048d-486a-8fdd-6fa8fee5f7cd" d="M155.51,81.35h-1.23V73c0-.83-.06-1.69-.11-2.41h1.28l.06,1.58,0,0a3.53,3.53,0,0,1,3.22-1.94c3.37,0,3.64,3.1,3.64,4.34v6.71h-1.24V74.42c0-1.86-1-3-2.71-3-2,0-3,1.78-3,3.7v6.18Z"/><path class="ff084789-048d-486a-8fdd-6fa8fee5f7cd" d="M166.16,71.79h-2V70.62h2V68.33l1.24-.56v2.85h2.34v1.17H167.4V79a1.3,1.3,0,0,0,1.41,1.52,3.42,3.42,0,0,0,1.07-.13v1.11a4.8,4.8,0,0,1-1.25.2c-2.61,0-2.47-1.74-2.47-3.19v-6.7Z"/></svg>